<?xml version="1.0" encoding="UTF-8" standalone="no"?>
<svg
   xmlns:dc="http://purl.org/dc/elements/1.1/"
   xmlns:cc="http://creativecommons.org/ns#"
   xmlns:rdf="http://www.w3.org/1999/02/22-rdf-syntax-ns#"
   xmlns:svg="http://www.w3.org/2000/svg"
   xmlns="http://www.w3.org/2000/svg"
   viewBox="0 0 56.360001 48"
   height="48"
   width="56.360001"
   xml:space="preserve"
   id="svg2"
   version="1.1"><metadata
     id="metadata8"><rdf:RDF><cc:Work
         rdf:about=""><dc:format>image/svg+xml</dc:format><dc:type
           rdf:resource="http://purl.org/dc/dcmitype/StillImage" /></cc:Work></rdf:RDF></metadata><defs
     id="defs6" /><g
     transform="matrix(1.3333333,0,0,-1.3333333,0,48)"
     id="g10"><g
       transform="scale(0.1)"
       id="g12"><path
         id="path14"
         style="fill:#231f20;fill-opacity:1;fill-rule:nonzero;stroke:none"
         d="m 398.555,72.0117 h -4.18 v 8.4688 h 5.293 c 2.754,0 5.867,-0.4532 5.867,-4.0352 0,-4.1015 -3.14,-4.4336 -6.98,-4.4336 z m 4.16,-2.5195 c 4.226,0.5195 6.445,2.8516 6.445,6.7578 0,4.7656 -2.898,7.0781 -8.84,7.0781 h -9.527 V 58.2617 h 3.582 v 10.918 h 4.434 l 0.086,-0.1367 6.898,-10.7813 h 3.824 l -7.383,11.1641 0.481,0.0664" /><path
         id="path16"
         style="fill:#231f20;fill-opacity:1;fill-rule:nonzero;stroke:none"
         d="m 398.965,50.1563 c -11.348,0 -20.254,8.9648 -20.254,20.6054 0,11.6328 8.906,20.6055 20.254,20.6055 11.355,0 20.246,-8.9727 20.246,-20.6055 0,-11.6406 -8.891,-20.6054 -20.246,-20.6054 z m 0,44.3164 c -13.313,0 -23.738,-10.4102 -23.738,-23.711 0,-13.3125 10.425,-23.7109 23.738,-23.7109 13.293,0 23.723,10.3984 23.723,23.7109 0,13.3008 -10.43,23.711 -23.723,23.711" /><path
         id="path18"
         style="fill:#231f20;fill-opacity:1;fill-rule:nonzero;stroke:none"
         d="m 306.77,53.2422 h -53.391 v 83.5428 c 0,19.926 -0.344,45.555 -27.742,45.555 -27.785,0 -32.024,-21.715 -32.024,-44.125 V 53.2422 H 140.281 V 225.039 h 51.184 v -23.484 h 0.73 c 7.121,13.504 24.543,27.746 50.52,27.746 54.062,0 64.055,-35.571 64.055,-81.84 z M 80.0781,248.512 c -17.1484,0 -30.9765,13.871 -30.9765,30.965 0,17.089 13.8281,30.964 30.9765,30.964 17.0821,0 30.9449,-13.875 30.9449,-30.964 0,-17.094 -13.8628,-30.965 -30.9449,-30.965 z M 106.785,53.2422 H 53.3398 V 225.039 H 106.785 Z M 333.359,360 H 26.5508 C 11.9063,360 0,348.379 0,334.043 V 25.9766 C 0,11.6406 11.9063,0 26.5508,0 H 333.359 c 14.676,0 26.629,11.6406 26.629,25.9766 V 334.043 c 0,14.336 -11.953,25.957 -26.629,25.957" /></g></g></svg>